<mxfile host="app.diagrams.net" modified="2024-01-19T02:38:00.693Z" agent="Mozilla/5.0 (Windows NT 10.0; Win64; x64) AppleWebKit/537.36 (KHTML, like Gecko) Chrome/120.0.0.0 Safari/537.36" etag="U2Lp0c1p1PfPmf13zGCi" version="22.1.21" type="device">
  <diagram name="PÃ¡gina-1" id="ZZTtwmGK7myt50bQQdSv">
    <mxGraphModel dx="1194" dy="742" grid="1" gridSize="10" guides="1" tooltips="1" connect="1" arrows="1" fold="1" page="1" pageScale="1" pageWidth="827" pageHeight="1169" math="0" shadow="0">
      <root>
        <mxCell id="0" />
        <mxCell id="1" parent="0" />
        <mxCell id="uUm3kYbAguZWua1ULqK8-32" value="" style="rounded=1;whiteSpace=wrap;html=1;strokeWidth=4;" vertex="1" parent="1">
          <mxGeometry x="610" y="150" width="570" height="560" as="geometry" />
        </mxCell>
        <mxCell id="uUm3kYbAguZWua1ULqK8-42" value="" style="verticalLabelPosition=bottom;html=1;verticalAlign=top;align=center;strokeColor=#10739e;fillColor=#b1ddf0;shape=mxgraph.azure.cloud;" vertex="1" parent="1">
          <mxGeometry x="1010" y="239.5" width="150" height="100" as="geometry" />
        </mxCell>
        <mxCell id="uUm3kYbAguZWua1ULqK8-46" value="" style="ellipse;whiteSpace=wrap;html=1;aspect=fixed;strokeWidth=3;fillColor=#b0e3e6;strokeColor=#0e8088;" vertex="1" parent="1">
          <mxGeometry x="1060" y="270" width="60" height="60" as="geometry" />
        </mxCell>
        <mxCell id="uUm3kYbAguZWua1ULqK8-41" value="" style="verticalLabelPosition=bottom;html=1;verticalAlign=top;align=center;strokeColor=#10739e;fillColor=#b1ddf0;shape=mxgraph.azure.cloud;" vertex="1" parent="1">
          <mxGeometry x="827" y="230" width="150" height="100" as="geometry" />
        </mxCell>
        <mxCell id="uUm3kYbAguZWua1ULqK8-40" value="" style="verticalLabelPosition=bottom;html=1;verticalAlign=top;align=center;strokeColor=#10739e;fillColor=#b1ddf0;shape=mxgraph.azure.cloud;" vertex="1" parent="1">
          <mxGeometry x="640" y="230" width="150" height="100" as="geometry" />
        </mxCell>
        <mxCell id="uUm3kYbAguZWua1ULqK8-1" value="" style="rounded=1;whiteSpace=wrap;html=1;strokeWidth=4;" vertex="1" parent="1">
          <mxGeometry x="30" y="150" width="450" height="560" as="geometry" />
        </mxCell>
        <mxCell id="uUm3kYbAguZWua1ULqK8-12" value="" style="image;html=1;image=img/lib/clip_art/networking/Firewall_02_128x128.png" vertex="1" parent="1">
          <mxGeometry x="400" y="290" width="60" height="60" as="geometry" />
        </mxCell>
        <mxCell id="uUm3kYbAguZWua1ULqK8-10" value="" style="ellipse;whiteSpace=wrap;html=1;aspect=fixed;strokeWidth=3;fillColor=#b0e3e6;strokeColor=#0e8088;" vertex="1" parent="1">
          <mxGeometry x="160" y="290" width="60" height="60" as="geometry" />
        </mxCell>
        <mxCell id="uUm3kYbAguZWua1ULqK8-2" value="" style="sketch=0;pointerEvents=1;shadow=0;dashed=0;html=1;strokeColor=#006EAF;fillColor=#1ba1e2;labelPosition=center;verticalLabelPosition=bottom;verticalAlign=top;align=center;outlineConnect=0;shape=mxgraph.veeam2.vmware_vswitch;fontColor=#ffffff;" vertex="1" parent="1">
          <mxGeometry x="80" y="330" width="100" height="30" as="geometry" />
        </mxCell>
        <mxCell id="uUm3kYbAguZWua1ULqK8-3" value="" style="sketch=0;pointerEvents=1;shadow=0;dashed=0;html=1;strokeColor=#006EAF;fillColor=#1ba1e2;labelPosition=center;verticalLabelPosition=bottom;verticalAlign=top;align=center;outlineConnect=0;shape=mxgraph.veeam2.vmware_vswitch;fontColor=#ffffff;" vertex="1" parent="1">
          <mxGeometry x="80" y="420" width="100" height="30" as="geometry" />
        </mxCell>
        <mxCell id="uUm3kYbAguZWua1ULqK8-4" value="" style="sketch=0;pointerEvents=1;shadow=0;dashed=0;html=1;strokeColor=#006EAF;fillColor=#1ba1e2;labelPosition=center;verticalLabelPosition=bottom;verticalAlign=top;align=center;outlineConnect=0;shape=mxgraph.veeam2.vmware_vswitch;fontColor=#ffffff;" vertex="1" parent="1">
          <mxGeometry x="80" y="510" width="100" height="30" as="geometry" />
        </mxCell>
        <mxCell id="uUm3kYbAguZWua1ULqK8-5" value="" style="sketch=0;pointerEvents=1;shadow=0;dashed=0;html=1;strokeColor=#006EAF;fillColor=#1ba1e2;labelPosition=center;verticalLabelPosition=bottom;verticalAlign=top;align=center;outlineConnect=0;shape=mxgraph.veeam2.vmware_vswitch;fontColor=#ffffff;" vertex="1" parent="1">
          <mxGeometry x="330" y="330" width="100" height="30" as="geometry" />
        </mxCell>
        <mxCell id="uUm3kYbAguZWua1ULqK8-6" value="" style="sketch=0;pointerEvents=1;shadow=0;dashed=0;html=1;strokeColor=#006EAF;fillColor=#1ba1e2;labelPosition=center;verticalLabelPosition=bottom;verticalAlign=top;align=center;outlineConnect=0;shape=mxgraph.veeam2.vmware_vswitch;fontColor=#ffffff;" vertex="1" parent="1">
          <mxGeometry x="330" y="420" width="100" height="30" as="geometry" />
        </mxCell>
        <mxCell id="uUm3kYbAguZWua1ULqK8-7" value="" style="sketch=0;pointerEvents=1;shadow=0;dashed=0;html=1;strokeColor=#006EAF;fillColor=#1ba1e2;labelPosition=center;verticalLabelPosition=bottom;verticalAlign=top;align=center;outlineConnect=0;shape=mxgraph.veeam2.vmware_vswitch;fontColor=#ffffff;" vertex="1" parent="1">
          <mxGeometry x="330" y="510" width="100" height="30" as="geometry" />
        </mxCell>
        <mxCell id="uUm3kYbAguZWua1ULqK8-8" value="" style="html=1;verticalLabelPosition=bottom;align=center;labelBackgroundColor=#ffffff;verticalAlign=top;strokeWidth=2;strokeColor=#10739e;shadow=0;dashed=0;shape=mxgraph.ios7.icons.mail;fillColor=#b1ddf0;" vertex="1" parent="1">
          <mxGeometry x="175.63" y="310" width="28.75" height="20" as="geometry" />
        </mxCell>
        <mxCell id="uUm3kYbAguZWua1ULqK8-13" value="TRADICIONAL" style="text;html=1;strokeColor=none;fillColor=none;align=center;verticalAlign=middle;whiteSpace=wrap;rounded=0;fontStyle=1;fontSize=16;" vertex="1" parent="1">
          <mxGeometry x="204.38" y="170" width="100" height="30" as="geometry" />
        </mxCell>
        <mxCell id="uUm3kYbAguZWua1ULqK8-14" value="" style="endArrow=none;html=1;rounded=0;strokeWidth=4;" edge="1" parent="1">
          <mxGeometry width="50" height="50" relative="1" as="geometry">
            <mxPoint x="100" y="420" as="sourcePoint" />
            <mxPoint x="100" y="360" as="targetPoint" />
          </mxGeometry>
        </mxCell>
        <mxCell id="uUm3kYbAguZWua1ULqK8-15" value="" style="endArrow=none;html=1;rounded=0;strokeWidth=4;" edge="1" parent="1">
          <mxGeometry width="50" height="50" relative="1" as="geometry">
            <mxPoint x="113" y="420" as="sourcePoint" />
            <mxPoint x="113" y="360" as="targetPoint" />
          </mxGeometry>
        </mxCell>
        <mxCell id="uUm3kYbAguZWua1ULqK8-16" value="" style="endArrow=none;html=1;rounded=0;strokeWidth=4;" edge="1" parent="1">
          <mxGeometry width="50" height="50" relative="1" as="geometry">
            <mxPoint x="150" y="420" as="sourcePoint" />
            <mxPoint x="150" y="360" as="targetPoint" />
          </mxGeometry>
        </mxCell>
        <mxCell id="uUm3kYbAguZWua1ULqK8-17" value="" style="endArrow=none;html=1;rounded=0;strokeWidth=4;" edge="1" parent="1">
          <mxGeometry width="50" height="50" relative="1" as="geometry">
            <mxPoint x="163" y="420" as="sourcePoint" />
            <mxPoint x="163" y="360" as="targetPoint" />
          </mxGeometry>
        </mxCell>
        <mxCell id="uUm3kYbAguZWua1ULqK8-18" value="" style="endArrow=none;html=1;rounded=0;strokeWidth=4;" edge="1" parent="1">
          <mxGeometry width="50" height="50" relative="1" as="geometry">
            <mxPoint x="150" y="510" as="sourcePoint" />
            <mxPoint x="150" y="450" as="targetPoint" />
          </mxGeometry>
        </mxCell>
        <mxCell id="uUm3kYbAguZWua1ULqK8-19" value="" style="endArrow=none;html=1;rounded=0;strokeWidth=4;" edge="1" parent="1">
          <mxGeometry width="50" height="50" relative="1" as="geometry">
            <mxPoint x="163" y="510" as="sourcePoint" />
            <mxPoint x="163" y="450" as="targetPoint" />
          </mxGeometry>
        </mxCell>
        <mxCell id="uUm3kYbAguZWua1ULqK8-20" value="" style="endArrow=none;html=1;rounded=0;strokeWidth=4;" edge="1" parent="1">
          <mxGeometry width="50" height="50" relative="1" as="geometry">
            <mxPoint x="100" y="510" as="sourcePoint" />
            <mxPoint x="100" y="450" as="targetPoint" />
          </mxGeometry>
        </mxCell>
        <mxCell id="uUm3kYbAguZWua1ULqK8-21" value="" style="endArrow=none;html=1;rounded=0;strokeWidth=4;" edge="1" parent="1">
          <mxGeometry width="50" height="50" relative="1" as="geometry">
            <mxPoint x="113" y="510" as="sourcePoint" />
            <mxPoint x="113" y="450" as="targetPoint" />
          </mxGeometry>
        </mxCell>
        <mxCell id="uUm3kYbAguZWua1ULqK8-22" value="" style="endArrow=none;html=1;rounded=0;strokeWidth=4;" edge="1" parent="1">
          <mxGeometry width="50" height="50" relative="1" as="geometry">
            <mxPoint x="345" y="420" as="sourcePoint" />
            <mxPoint x="345" y="360" as="targetPoint" />
          </mxGeometry>
        </mxCell>
        <mxCell id="uUm3kYbAguZWua1ULqK8-23" value="" style="endArrow=none;html=1;rounded=0;strokeWidth=4;" edge="1" parent="1">
          <mxGeometry width="50" height="50" relative="1" as="geometry">
            <mxPoint x="358" y="420" as="sourcePoint" />
            <mxPoint x="358" y="360" as="targetPoint" />
          </mxGeometry>
        </mxCell>
        <mxCell id="uUm3kYbAguZWua1ULqK8-24" value="" style="endArrow=none;html=1;rounded=0;strokeWidth=4;" edge="1" parent="1">
          <mxGeometry width="50" height="50" relative="1" as="geometry">
            <mxPoint x="398" y="419" as="sourcePoint" />
            <mxPoint x="398" y="359" as="targetPoint" />
          </mxGeometry>
        </mxCell>
        <mxCell id="uUm3kYbAguZWua1ULqK8-25" value="" style="endArrow=none;html=1;rounded=0;strokeWidth=4;" edge="1" parent="1">
          <mxGeometry width="50" height="50" relative="1" as="geometry">
            <mxPoint x="411" y="419" as="sourcePoint" />
            <mxPoint x="411" y="359" as="targetPoint" />
          </mxGeometry>
        </mxCell>
        <mxCell id="uUm3kYbAguZWua1ULqK8-26" value="" style="endArrow=none;html=1;rounded=0;strokeWidth=4;" edge="1" parent="1">
          <mxGeometry width="50" height="50" relative="1" as="geometry">
            <mxPoint x="402" y="510" as="sourcePoint" />
            <mxPoint x="402" y="450" as="targetPoint" />
          </mxGeometry>
        </mxCell>
        <mxCell id="uUm3kYbAguZWua1ULqK8-27" value="" style="endArrow=none;html=1;rounded=0;strokeWidth=4;" edge="1" parent="1">
          <mxGeometry width="50" height="50" relative="1" as="geometry">
            <mxPoint x="415" y="510" as="sourcePoint" />
            <mxPoint x="415" y="450" as="targetPoint" />
          </mxGeometry>
        </mxCell>
        <mxCell id="uUm3kYbAguZWua1ULqK8-28" value="" style="endArrow=none;html=1;rounded=0;strokeWidth=4;" edge="1" parent="1">
          <mxGeometry width="50" height="50" relative="1" as="geometry">
            <mxPoint x="347" y="510" as="sourcePoint" />
            <mxPoint x="347" y="450" as="targetPoint" />
          </mxGeometry>
        </mxCell>
        <mxCell id="uUm3kYbAguZWua1ULqK8-29" value="" style="endArrow=none;html=1;rounded=0;strokeWidth=4;" edge="1" parent="1">
          <mxGeometry width="50" height="50" relative="1" as="geometry">
            <mxPoint x="360" y="510" as="sourcePoint" />
            <mxPoint x="360" y="450" as="targetPoint" />
          </mxGeometry>
        </mxCell>
        <mxCell id="uUm3kYbAguZWua1ULqK8-30" value="X CORES&lt;br&gt;XX GB Ram&lt;br&gt;&lt;font color=&quot;#3399ff&quot;&gt;30%&lt;/font&gt;&amp;nbsp;Utilization" style="text;html=1;strokeColor=none;fillColor=none;align=left;verticalAlign=middle;whiteSpace=wrap;rounded=0;fontStyle=1;fontSize=15;" vertex="1" parent="1">
          <mxGeometry x="80" y="620" width="110" height="60" as="geometry" />
        </mxCell>
        <mxCell id="uUm3kYbAguZWua1ULqK8-31" value="X CORES&lt;br&gt;XX GB Ram&lt;br&gt;&lt;font color=&quot;#ff4f55&quot;&gt;6%&lt;/font&gt;&amp;nbsp;Utilization" style="text;html=1;strokeColor=none;fillColor=none;align=left;verticalAlign=middle;whiteSpace=wrap;rounded=0;fontStyle=1;fontSize=15;" vertex="1" parent="1">
          <mxGeometry x="320" y="620" width="110" height="60" as="geometry" />
        </mxCell>
        <mxCell id="uUm3kYbAguZWua1ULqK8-33" value="" style="sketch=0;pointerEvents=1;shadow=0;dashed=0;html=1;strokeColor=#006EAF;fillColor=#1ba1e2;labelPosition=center;verticalLabelPosition=bottom;verticalAlign=top;align=center;outlineConnect=0;shape=mxgraph.veeam2.vmware_vswitch;fontColor=#ffffff;" vertex="1" parent="1">
          <mxGeometry x="670" y="330" width="100" height="30" as="geometry" />
        </mxCell>
        <mxCell id="uUm3kYbAguZWua1ULqK8-34" value="" style="sketch=0;pointerEvents=1;shadow=0;dashed=0;html=1;strokeColor=#006EAF;fillColor=#1ba1e2;labelPosition=center;verticalLabelPosition=bottom;verticalAlign=top;align=center;outlineConnect=0;shape=mxgraph.veeam2.vmware_vswitch;fontColor=#ffffff;" vertex="1" parent="1">
          <mxGeometry x="670" y="361" width="100" height="30" as="geometry" />
        </mxCell>
        <mxCell id="uUm3kYbAguZWua1ULqK8-35" value="" style="sketch=0;pointerEvents=1;shadow=0;dashed=0;html=1;strokeColor=#006EAF;fillColor=#1ba1e2;labelPosition=center;verticalLabelPosition=bottom;verticalAlign=top;align=center;outlineConnect=0;shape=mxgraph.veeam2.vmware_vswitch;fontColor=#ffffff;" vertex="1" parent="1">
          <mxGeometry x="850" y="330" width="100" height="30" as="geometry" />
        </mxCell>
        <mxCell id="uUm3kYbAguZWua1ULqK8-36" value="" style="sketch=0;pointerEvents=1;shadow=0;dashed=0;html=1;strokeColor=#006EAF;fillColor=#1ba1e2;labelPosition=center;verticalLabelPosition=bottom;verticalAlign=top;align=center;outlineConnect=0;shape=mxgraph.veeam2.vmware_vswitch;fontColor=#ffffff;" vertex="1" parent="1">
          <mxGeometry x="850" y="361" width="100" height="30" as="geometry" />
        </mxCell>
        <mxCell id="uUm3kYbAguZWua1ULqK8-37" value="" style="ellipse;whiteSpace=wrap;html=1;aspect=fixed;strokeWidth=3;fillColor=#b0e3e6;strokeColor=#0e8088;" vertex="1" parent="1">
          <mxGeometry x="690" y="260" width="60" height="60" as="geometry" />
        </mxCell>
        <mxCell id="uUm3kYbAguZWua1ULqK8-38" value="" style="html=1;verticalLabelPosition=bottom;align=center;labelBackgroundColor=#ffffff;verticalAlign=top;strokeWidth=2;strokeColor=#10739e;shadow=0;dashed=0;shape=mxgraph.ios7.icons.mail;fillColor=#b1ddf0;" vertex="1" parent="1">
          <mxGeometry x="705.63" y="280" width="28.75" height="20" as="geometry" />
        </mxCell>
        <mxCell id="uUm3kYbAguZWua1ULqK8-39" value="" style="image;html=1;image=img/lib/clip_art/networking/Firewall_02_128x128.png" vertex="1" parent="1">
          <mxGeometry x="880" y="260" width="60" height="60" as="geometry" />
        </mxCell>
        <mxCell id="uUm3kYbAguZWua1ULqK8-43" value="" style="sketch=0;pointerEvents=1;shadow=0;dashed=0;html=1;strokeColor=#006EAF;fillColor=#1ba1e2;labelPosition=center;verticalLabelPosition=bottom;verticalAlign=top;align=center;outlineConnect=0;shape=mxgraph.veeam2.vmware_vswitch;fontColor=#ffffff;" vertex="1" parent="1">
          <mxGeometry x="1033" y="339.5" width="100" height="30" as="geometry" />
        </mxCell>
        <mxCell id="uUm3kYbAguZWua1ULqK8-44" value="" style="sketch=0;pointerEvents=1;shadow=0;dashed=0;html=1;strokeColor=#006EAF;fillColor=#1ba1e2;labelPosition=center;verticalLabelPosition=bottom;verticalAlign=top;align=center;outlineConnect=0;shape=mxgraph.veeam2.vmware_vswitch;fontColor=#ffffff;" vertex="1" parent="1">
          <mxGeometry x="1033" y="370.5" width="100" height="30" as="geometry" />
        </mxCell>
        <mxCell id="uUm3kYbAguZWua1ULqK8-45" value="" style="dashed=0;outlineConnect=0;html=1;align=center;labelPosition=center;verticalLabelPosition=bottom;verticalAlign=top;shape=mxgraph.weblogos.phone;fillColor=#d0cee2;strokeColor=#56517e;" vertex="1" parent="1">
          <mxGeometry x="1068" y="284.2" width="40" height="35.8" as="geometry" />
        </mxCell>
        <mxCell id="uUm3kYbAguZWua1ULqK8-47" value="" style="sketch=0;pointerEvents=1;shadow=0;dashed=0;html=1;strokeColor=#006EAF;fillColor=#1ba1e2;labelPosition=center;verticalLabelPosition=bottom;verticalAlign=top;align=center;outlineConnect=0;shape=mxgraph.veeam2.vmware_vswitch;fontColor=#ffffff;" vertex="1" parent="1">
          <mxGeometry x="852" y="500" width="100" height="30" as="geometry" />
        </mxCell>
        <mxCell id="uUm3kYbAguZWua1ULqK8-48" value="" style="sketch=0;pointerEvents=1;shadow=0;dashed=0;html=1;strokeColor=#006EAF;fillColor=#1ba1e2;labelPosition=center;verticalLabelPosition=bottom;verticalAlign=top;align=center;outlineConnect=0;shape=mxgraph.veeam2.vmware_vswitch;fontColor=#ffffff;" vertex="1" parent="1">
          <mxGeometry x="852" y="590" width="100" height="30" as="geometry" />
        </mxCell>
        <mxCell id="uUm3kYbAguZWua1ULqK8-49" value="" style="endArrow=none;html=1;rounded=0;strokeWidth=4;" edge="1" parent="1">
          <mxGeometry width="50" height="50" relative="1" as="geometry">
            <mxPoint x="870" y="590" as="sourcePoint" />
            <mxPoint x="870" y="530" as="targetPoint" />
          </mxGeometry>
        </mxCell>
        <mxCell id="uUm3kYbAguZWua1ULqK8-50" value="" style="endArrow=none;html=1;rounded=0;strokeWidth=4;" edge="1" parent="1">
          <mxGeometry width="50" height="50" relative="1" as="geometry">
            <mxPoint x="940" y="590" as="sourcePoint" />
            <mxPoint x="940" y="530" as="targetPoint" />
          </mxGeometry>
        </mxCell>
        <mxCell id="uUm3kYbAguZWua1ULqK8-51" value="" style="endArrow=none;html=1;rounded=0;strokeWidth=4;" edge="1" parent="1">
          <mxGeometry width="50" height="50" relative="1" as="geometry">
            <mxPoint x="930" y="590" as="sourcePoint" />
            <mxPoint x="930" y="530" as="targetPoint" />
          </mxGeometry>
        </mxCell>
        <mxCell id="uUm3kYbAguZWua1ULqK8-52" value="" style="endArrow=none;html=1;rounded=0;strokeWidth=4;" edge="1" parent="1">
          <mxGeometry width="50" height="50" relative="1" as="geometry">
            <mxPoint x="880" y="590" as="sourcePoint" />
            <mxPoint x="880" y="530" as="targetPoint" />
          </mxGeometry>
        </mxCell>
        <mxCell id="uUm3kYbAguZWua1ULqK8-53" value="" style="endArrow=classic;html=1;rounded=0;strokeWidth=4;startArrow=classic;startFill=1;endFill=1;" edge="1" parent="1">
          <mxGeometry width="50" height="50" relative="1" as="geometry">
            <mxPoint x="1092" y="400.5" as="sourcePoint" />
            <mxPoint x="724.5238095238096" y="391" as="targetPoint" />
            <Array as="points">
              <mxPoint x="1092" y="470.5" />
              <mxPoint x="722" y="470.5" />
            </Array>
          </mxGeometry>
        </mxCell>
        <mxCell id="uUm3kYbAguZWua1ULqK8-54" value="" style="endArrow=classic;html=1;rounded=0;strokeWidth=4;endFill=1;" edge="1" parent="1">
          <mxGeometry width="50" height="50" relative="1" as="geometry">
            <mxPoint x="901.5" y="500" as="sourcePoint" />
            <mxPoint x="901.5" y="390" as="targetPoint" />
          </mxGeometry>
        </mxCell>
        <mxCell id="uUm3kYbAguZWua1ULqK8-55" value="X CORES&amp;nbsp; &amp;nbsp;XX GB Ram&amp;nbsp;&amp;nbsp;&lt;font color=&quot;#3399ff&quot;&gt;60%&lt;/font&gt;&amp;nbsp;Utilization" style="text;html=1;strokeColor=none;fillColor=none;align=left;verticalAlign=middle;whiteSpace=wrap;rounded=0;fontStyle=1;fontSize=15;" vertex="1" parent="1">
          <mxGeometry x="750" y="650" width="300" height="60" as="geometry" />
        </mxCell>
        <mxCell id="uUm3kYbAguZWua1ULqK8-56" value="" style="verticalLabelPosition=bottom;verticalAlign=top;html=1;shape=mxgraph.basic.x;fillColor=#fad9d5;strokeColor=#ae4132;" vertex="1" parent="1">
          <mxGeometry x="510" y="440" width="70" height="70" as="geometry" />
        </mxCell>
        <mxCell id="uUm3kYbAguZWua1ULqK8-57" value="VIRTUALIZATION" style="text;html=1;strokeColor=none;fillColor=none;align=center;verticalAlign=middle;whiteSpace=wrap;rounded=0;fontStyle=1;fontSize=16;" vertex="1" parent="1">
          <mxGeometry x="860" y="170" width="100" height="30" as="geometry" />
        </mxCell>
      </root>
    </mxGraphModel>
  </diagram>
</mxfile>
